<svg width="24" height="24" viewBox="0 0 24 24" fill="none" xmlns="http://www.w3.org/2000/svg">
<path d="M0 12C0 5.37258 5.37258 0 12 0V0C18.6274 0 24 5.37258 24 12V12C24 18.6274 18.6274 24 12 24V24C5.37258 24 0 18.6274 0 12V12Z" fill="#E3F2FF"/>
<path d="M8.84853 10.6515C8.3799 10.1828 7.6201 10.1828 7.15147 10.6515C6.68284 11.1201 6.68284 11.8799 7.15147 12.3485L8.84853 10.6515ZM11 14.5L10.1515 15.3485C10.6201 15.8172 11.3799 15.8172 11.8485 15.3485L11 14.5ZM16.8485 10.3485C17.3172 9.8799 17.3172 9.1201 16.8485 8.65147C16.3799 8.18284 15.6201 8.18284 15.1515 8.65147L16.8485 10.3485ZM7.15147 12.3485L10.1515 15.3485L11.8485 13.6515L8.84853 10.6515L7.15147 12.3485ZM11.8485 15.3485L16.8485 10.3485L15.1515 8.65147L10.1515 13.6515L11.8485 15.3485Z" fill="#2998FF"/>
</svg>
