<svg width="24" height="24" viewBox="0 0 24 24" fill="none" xmlns="http://www.w3.org/2000/svg">
<g opacity="0.75">
<path d="M0 12C0 5.37258 5.37258 0 12 0V0C18.6274 0 24 5.37258 24 12V12C24 18.6274 18.6274 24 12 24V24C5.37258 24 0 18.6274 0 12V12Z" fill="#FCEDEF"/>
<path d="M9.84853 8.15147C9.3799 7.68284 8.6201 7.68284 8.15147 8.15147C7.68284 8.6201 7.68284 9.3799 8.15147 9.84853L9.84853 8.15147ZM14.1515 15.8485C14.6201 16.3172 15.3799 16.3172 15.8485 15.8485C16.3172 15.3799 16.3172 14.6201 15.8485 14.1515L14.1515 15.8485ZM8.15147 14.1515C7.68284 14.6201 7.68284 15.3799 8.15147 15.8485C8.6201 16.3172 9.3799 16.3172 9.84853 15.8485L8.15147 14.1515ZM15.8485 9.84853C16.3172 9.3799 16.3172 8.6201 15.8485 8.15147C15.3799 7.68284 14.6201 7.68284 14.1515 8.15147L15.8485 9.84853ZM8.15147 9.84853L14.1515 15.8485L15.8485 14.1515L9.84853 8.15147L8.15147 9.84853ZM9.84853 15.8485L15.8485 9.84853L14.1515 8.15147L8.15147 14.1515L9.84853 15.8485Z" fill="#DF4456"/>
</g>
</svg>
